<?xml version="1.0" encoding="UTF-8" standalone="no"?>
<svg xmlns:dc="http://purl.org/dc/elements/1.1/" xmlns:cc="http://creativecommons.org/ns#" xmlns:rdf="http://www.w3.org/1999/02/22-rdf-syntax-ns#" xmlns:svg="http://www.w3.org/2000/svg" xmlns="http://www.w3.org/2000/svg" xmlns:sodipodi="http://sodipodi.sourceforge.net/DTD/sodipodi-0.dtd" xmlns:inkscape="http://www.inkscape.org/namespaces/inkscape" width="534" height="280" viewBox="0 0 534.00001 280" id="svg2" version="1.1">
    <ellipse id="circle" style="fill:#f79122;fill-opacity:1;fill-rule:nonzero;stroke:none" cx="142.57735" cy="-140" rx="142.57735" ry="140" transform="scale(1,-1)" />
    <path id="letter-d" style="fill:#ffffff;fill-opacity:1;fill-rule:nonzero;stroke:none" d="m 218.43688,148.35719 c -2.36929,-12.5836 -13.795,-23.49713 -27.62443,-25.63852 -5.25411,-0.81308 -10.58107,-0.43741 -15.87398,-0.31502 -2.43506,0.0564 -3.45304,1.34505 -3.45304,3.77351 0,17.54493 0,35.08931 0,52.6337 0,0.41526 0,0.82998 0,1.34399 -0.45058,0 -0.78037,0 -1.11017,0 -27.76822,0 -55.53659,5.2e-4 -83.304953,-0.003 -0.335649,0 -0.680834,0.01 -1.005727,-0.059 -7.130161,-1.5208 -14.525693,-8.47466 -13.165095,-18.77598 0.81647,-6.18561 4.476466,-10.36533 9.971043,-13.06342 1.432335,-0.70339 2.075992,-1.74073 2.287597,-3.24154 0.206968,-1.46475 0.401145,-2.96231 0.871868,-4.35546 4.000838,-11.8417 16.762737,-18.48893 29.594767,-13.68699 1.62664,0.60843 3.50478,-0.003 4.26009,-1.49285 0.8121,-1.60199 0.23979,-3.54818 -1.34791,-4.39828 -0.6122,-0.32759 -1.27601,-0.60303 -1.9499,-0.76662 -2.24307,-0.54521 -4.50097,-1.02909 -6.83499,-1.55458 0.0463,-0.23438 0.0926,-0.58993 0.18736,-0.93196 3.18915,-11.52142 15.14264,-21.226992 30.50217,-17.52063 7.89451,1.905 13.28479,6.98292 16.68894,14.18155 1.59832,3.38136 2.07763,7.01438 2.04507,10.73142 -0.0148,1.68643 1.41763,3.04365 3.10637,3.07066 1.80788,0.028 3.37651,-1.29345 3.42539,-2.95556 0.14625,-5.01996 -0.61384,-9.90564 -2.92389,-14.39579 -5.12421,-9.9594 -13.13786,-16.152321 -24.46035,-17.641514 -4.66954,-0.614108 -9.38593,-0.478612 -13.88104,1.11987 -11.51285,4.093663 -18.81967,11.954094 -21.39402,23.940874 -0.10799,0.50347 -0.23721,0.86807 -0.89516,0.90766 -0.72549,0.0438 -1.4563,0.21154 -2.155779,0.42052 -11.496515,3.43053 -18.652597,10.87394 -21.212692,22.58109 -0.08724,0.39839 -0.437215,0.84483 -0.793062,1.0649 -5.965251,3.68746 -10.069909,8.69256 -11.379987,15.69166 -0.22127,1.18255 -0.363813,2.37984 -0.543064,3.57035 0,0.72973 0,1.45961 0,2.18989 0.189351,1.21362 0.346264,2.43318 0.573388,3.63992 1.834515,9.75002 10.639585,17.59718 20.630273,18.41034 0.292481,0.0243 5.963669,-0.14088 6.949241,-0.14141 26.634792,-0.0196 53.269162,-0.0153 79.903932,-0.0153 2.74892,0 3.91534,-1.14666 3.91534,-3.84944 5.2e-4,-17.51428 -8.7e-4,-35.02868 0.003,-52.54294 5.3e-4,-1.54877 -0.22073,-1.45907 1.50041,-1.44273 2.69419,0.026 5.39354,-0.007 8.08229,0.14144 6.5391,0.36365 12.0831,3.01999 16.80494,7.44935 4.05912,3.80715 6.79878,8.38483 7.65254,13.88799 1.43111,9.23237 -1.442,17.01256 -8.46136,23.23871 -5.1912,4.6051 -11.33993,6.89672 -18.27323,6.87618 -3.21802,-0.009 -4.47483,2.94236 -3.33812,4.7291 0.48775,0.76566 1.40837,1.26064 2.13236,1.87854 1.04195,0 2.0839,0 3.12652,0 1.19731,-0.19153 2.39406,-0.38784 3.59287,-0.57359 8.54348,-1.325 15.46795,-5.45413 20.99221,-11.9757 3.96515,-4.68211 6.22823,-10.103 6.98667,-16.15773 0.0667,-0.52873 0.1634,-1.05421 0.24511,-1.58145 0,-1.3983 0,-2.79725 0,-4.19607 -0.0694,-0.28815 -0.16341,-0.57303 -0.20426,-0.86497 -0.15522,-1.11122 -0.23829,-2.23472 -0.44527,-3.33595" />
    <path id="letter-e-1" style="fill:#ffffff;fill-opacity:1;fill-rule:nonzero;stroke:none" d="m 246.99267,156.88557 c -1.41336,-1.47534 -3.11633,-2.65751 -5.11293,-3.54711 -1.99659,-0.88852 -4.22674,-1.33411 -6.68644,-1.33411 -2.50109,0 -4.76059,0.43503 -6.77587,1.30389 -2.01795,0.86965 -3.74227,2.06134 -5.17432,3.57733 -1.43205,1.51545 -2.54111,3.27375 -3.32721,5.27452 -0.78609,2.00076 -1.1798,4.11332 -1.1798,6.33554 0,2.2233 0.39371,4.32596 1.1798,6.3052 0.7861,1.9815 1.89516,3.71948 3.32721,5.21407 1.43205,1.49606 3.15637,2.67825 5.17432,3.54699 2.01528,0.86873 4.25477,1.30336 6.71581,1.30336 3.34722,0 6.28206,-0.75799 8.80315,-2.27344 2.5211,-1.51602 5.03553,-5.30491 5.03553,-5.30491 0,0 0.62193,-2.51055 -1.38802,-3.28632 -2.83071,-1.09179 -3.91977,1.10382 -3.91977,1.10382 -0.32298,0.72711 -0.76607,1.39482 -1.33061,2.00076 -0.56588,0.60594 -1.21051,1.12161 -1.93654,1.54568 -0.72604,0.42473 -1.5228,0.74809 -2.3903,0.97062 -0.86751,0.22253 -1.74435,0.33287 -2.63187,0.33287 -1.2105,0 -2.3703,-0.22161 -3.47936,-0.66667 -1.10907,-0.44399 -2.09669,-1.08136 -2.96419,-1.90982 -0.86884,-0.82793 -1.57351,-1.80859 -2.11805,-2.94049 -0.54452,-1.13098 -0.87684,-2.40463 -0.99829,-3.81978 l 0,0 -0.1815,-4.60748 0,0 c 0.12145,-1.33424 0.44308,-2.56645 0.96759,-3.69848 0.52451,-1.13097 1.21051,-2.09224 2.05799,-2.87992 0.84748,-0.78836 1.82443,-1.40419 2.93483,-1.84938 1.10906,-0.444 2.28888,-0.66652 3.53941,-0.66652 1.2492,0 2.43968,0.22252 3.5701,0.66652 1.12909,0.44519 2.11805,1.06102 2.96419,1.84938 0.84748,0.78768 1.54282,1.74895 2.08735,2.87992 0.54453,1.13203 0.87819,2.36424 0.99831,3.69848 l -14.85967,0 c 0,0 -1.30258,0.26693 -1.23852,2.3946 0.064,2.12768 1.23852,2.21288 1.23852,2.21288 l 21.27384,0 c 0.0401,-0.28205 0.0801,-0.63631 0.12146,-1.06091 0.0401,-0.42419 0.06,-0.87928 0.06,-1.36407 0,-2.14171 -0.37369,-4.19315 -1.11975,-6.15366 -0.74738,-1.96011 -1.82576,-3.67763 -3.23645,-5.15336" />
    <path id="letter-v" style="fill:#ffffff;fill-opacity:1;fill-rule:nonzero;stroke:none" d="m 261.5467,157.96638 6.00312,16.87791 6.46624,-17.61249 c 0.50581,-1.41569 1.00496,-2.41814 1.49343,-3.00844 0.48981,-0.58921 1.23185,-0.88437 2.22881,-0.88437 0.94092,0 1.74169,0.31816 2.40366,0.95285 0.66064,0.63523 0.99162,1.37022 0.99162,2.20497 0,0.32657 -0.0587,0.7073 -0.17617,1.14354 -0.11878,0.43516 -0.25491,0.84372 -0.40839,1.22444 -0.15348,0.38141 -0.32965,0.81711 -0.52852,1.3071 l -7.11886,17.69434 c -0.19885,0.50831 -0.45777,1.15237 -0.77408,1.93243 -0.3163,0.78085 -0.66997,1.44751 -1.05968,2.00116 -0.38971,0.55378 -0.86884,0.98423 -1.44006,1.29296 -0.56988,0.30821 -1.26255,0.46283 -2.078,0.46283 -1.05034,0 -1.88848,-0.2408 -2.51309,-0.72141 -0.6246,-0.4806 -1.08638,-1.00723 -1.38534,-1.57921 -0.29895,-0.57143 -0.80211,-1.70146 -1.50811,-3.38876 l -7.06282,-17.50417 c -0.16282,-0.43516 -0.33098,-0.87087 -0.50315,-1.30656 -0.17217,-0.4357 -0.3163,-0.87969 -0.43374,-1.33371 -0.11879,-0.45335 -0.17751,-0.84357 -0.17751,-1.17055 0,-0.50778 0.15348,-1.01141 0.46178,-1.51077 0.3083,-0.49896 0.73404,-0.90738 1.27723,-1.22498 0.54319,-0.31722 1.13176,-0.4765 1.7657,-0.4765 1.23186,0 2.07934,0.35373 2.54111,1.06157 0.46178,0.70772 0.97295,1.89673 1.53482,3.56582" />
    <path id="letter-e-2" style="fill:#000;fill-opacity:1;fill-rule:nonzero;stroke:none" d="m 309.63305,167.3093 c -0.11077,-1.56359 -0.47379,-2.98756 -1.08638,-4.27167 -0.6126,-1.28449 -1.39333,-2.39192 -2.34093,-3.32283 -0.94757,-0.92984 -2.05264,-1.65653 -3.31519,-2.17836 -1.26388,-0.52089 -2.60117,-0.78152 -4.01319,-0.78152 -1.41204,0 -2.74932,0.26063 -4.01187,0.78152 -1.26389,0.52183 -2.36895,1.24852 -3.31653,2.17836 -0.94758,0.93091 -1.70966,2.0477 -2.28488,3.35051 -0.57655,1.30349 -0.91954,2.71811 -1.03033,4.24399 z m -10.69964,16.64126 c -2.11805,0 -4.06792,-0.40016 -5.85232,-1.20046 -1.78305,-0.80032 -3.32452,-1.89884 -4.62578,-3.29527 -1.29992,-1.39575 -2.31156,-3.00522 -3.03626,-4.83053 -0.7247,-1.82316 -1.08639,-3.77793 -1.08639,-5.86334 0,-2.04663 0.36169,-3.97331 1.08639,-5.77909 0.7247,-1.80538 1.73634,-3.38729 3.03626,-4.74708 1.30126,-1.35872 2.83339,-2.43739 4.59776,-3.23872 1.76437,-0.80039 3.70758,-1.20106 5.82429,-1.20106 2.11803,0 4.05857,0.40067 5.82427,1.20106 1.76437,0.80133 3.27783,1.8899 4.54171,3.26693 1.26255,1.37705 2.2475,2.95936 2.95352,4.74655 0.70601,1.78706 1.05969,3.68539 1.05969,5.69604 0,0.29836 -0.0107,0.59551 -0.028,0.89333 -0.0201,0.29823 -0.0467,0.50257 -0.0841,0.61437 l -24.79989,0 c 0.11077,1.56347 0.47379,3.00629 1.08638,4.32742 0.61392,1.32222 1.39334,2.46669 2.34092,3.43478 0.94758,0.96848 2.0433,1.72234 3.2885,2.2614 1.24386,0.54015 2.57181,0.80975 3.98384,0.80975 0.96627,0 1.91385,-0.13012 2.84274,-0.39075 0.92889,-0.26026 1.78305,-0.61384 2.5638,-1.06104 0.78076,-0.4472 1.47743,-0.99564 2.09003,-1.64704 0.61259,-0.65141 1.08637,-1.36876 1.42136,-2.15014 l 3.28717,0.89319 c -0.44577,1.08028 -1.07703,2.0572 -1.89383,2.93166 -0.81812,0.87502 -1.7657,1.63876 -2.84273,2.28964 -1.07837,0.65196 -2.26753,1.1545 -3.56744,1.50763 -1.29993,0.35314 -2.63855,0.53077 -4.01187,0.53077" />
    <path id="letter-l-1" style="fill:#000;fill-opacity:1;fill-rule:nonzero;stroke:none" d="m 319.10752,142.62681 3.78899,0 0,34.17585 c 0,1.07975 0.29762,1.92654 0.89286,2.54037 0.59257,0.6149 1.42937,0.92155 2.50774,0.92155 0.4084,0 0.8902,-0.0558 1.44806,-0.16716 0.55788,-0.11127 1.07838,-0.26012 1.56018,-0.44667 l 0.66998,3.07166 c -0.70601,0.29775 -1.56951,0.53962 -2.59183,0.7256 -1.02233,0.18544 -1.90451,0.27948 -2.64656,0.27948 -1.74702,0 -3.12167,-0.49367 -4.12531,-1.48046 -1.00229,-0.98575 -1.50411,-2.37268 -1.50411,-4.15974 l 0,-35.46048" />
    <path id="letter-o" style="fill:#000;fill-opacity:1;fill-rule:nonzero;stroke:none" d="m 335.60342,168.98456 c 0,1.63875 0.26826,3.15527 0.80878,4.55103 0.53785,1.39643 1.28123,2.62503 2.22882,3.68605 0.94758,1.0605 2.06198,1.8895 3.34322,2.48501 1.28123,0.59604 2.64788,0.89333 4.09594,0.89333 1.44941,0 2.81473,-0.30719 4.09729,-0.92155 1.28124,-0.61383 2.40365,-1.45219 3.37125,-2.51269 0.96493,-1.06103 1.72699,-2.29804 2.28487,-3.71374 0.55786,-1.41461 0.83681,-2.94049 0.83681,-4.57925 0,-1.60009 -0.27895,-3.11755 -0.83681,-4.55101 -0.55788,-1.43295 -1.31994,-2.6804 -2.28487,-3.74144 -0.9676,-1.06088 -2.08201,-1.89884 -3.34456,-2.51308 -1.26255,-0.61436 -2.61852,-0.921 -4.06792,-0.921 -1.44939,0 -2.81471,0.30664 -4.09595,0.921 -1.28123,0.61424 -2.39697,1.46156 -3.34322,2.54091 -0.94758,1.08029 -1.70031,2.33656 -2.25817,3.7695 -0.55654,1.43347 -0.83548,2.96925 -0.83548,4.60693 z m 10.53282,14.966 c -2.11804,0 -4.05858,-0.40016 -5.82294,-1.20046 -1.7657,-0.80032 -3.28851,-1.88894 -4.57107,-3.26705 -1.28124,-1.37704 -2.27554,-2.97767 -2.98154,-4.80285 -0.70602,-1.82316 -1.05836,-3.74128 -1.05836,-5.75154 0,-2.04664 0.36168,-3.9832 1.08637,-5.80784 0.72471,-1.82317 1.72834,-3.42487 3.00958,-4.80192 1.28123,-1.37703 2.80536,-2.47603 4.56973,-3.29515 1.76436,-0.81857 3.68756,-1.22874 5.76823,-1.22874 2.08067,0 4.00386,0.41017 5.76822,1.22874 1.76437,0.81912 3.2885,1.91812 4.56974,3.29515 1.28257,1.37705 2.28487,2.97875 3.00957,4.80192 0.7247,1.82464 1.08772,3.7612 1.08772,5.80784 0,2.01026 -0.36302,3.92838 -1.08772,5.75154 -0.7247,1.82518 -1.727,3.42581 -3.00957,4.80285 -1.28124,1.37811 -2.80537,2.46673 -4.56974,3.26705 -1.76436,0.8003 -3.68755,1.20046 -5.76822,1.20046" />
    <path id="letter-p" style="fill:#000;fill-opacity:1;fill-rule:nonzero;stroke:none" d="m 380.57744,180.59998 c 1.56017,0 2.97219,-0.3354 4.23474,-1.00513 1.26255,-0.67027 2.35027,-1.55411 3.26049,-2.6527 0.91021,-1.09755 1.60687,-2.34554 2.09001,-3.74129 0.48313,-1.39643 0.72469,-2.83873 0.72469,-4.32811 0,-1.56345 -0.27893,-3.05229 -0.8368,-4.46744 -0.55654,-1.41408 -1.31727,-2.66099 -2.28354,-3.74142 -0.96759,-1.07974 -2.11002,-1.93483 -3.42731,-2.56859 -1.31993,-0.63255 -2.7413,-0.94908 -4.26411,-0.94908 -0.96625,0 -1.96856,0.19537 -3.00956,0.58614 -1.041,0.39063 -2.02594,0.91258 -2.95351,1.56399 -0.92889,0.65141 -1.71899,1.41516 -2.36762,2.28909 -0.65129,0.87501 -1.05167,1.79656 -1.19848,2.76397 l 0,8.93543 c 0.44576,1.04218 1.01164,2.01026 1.69896,2.90346 0.68733,0.89386 1.46809,1.66643 2.34093,2.31744 0.87151,0.65194 1.82042,1.1644 2.84274,1.53631 1.02098,0.37191 2.06999,0.55793 3.14837,0.55793 z m 1.05834,3.35058 c -2.45168,0 -4.62578,-0.6227 -6.52094,-1.87121 -1.89383,-1.24641 -3.41797,-2.8199 -4.5684,-4.71823 l 0,17.92529 -3.79032,0 0,-40.98829 3.39927,0 0,5.64028 c 1.18915,-1.82423 2.73197,-3.30357 4.62579,-4.43989 1.89516,-1.13513 3.95715,-1.7035 6.18597,-1.7035 2.00593,0 3.85438,0.41953 5.54534,1.25696 1.68963,0.83729 3.1497,1.95422 4.37488,3.34998 1.22518,1.39644 2.18211,3.0075 2.87077,4.83053 0.68599,1.82478 1.03033,3.70545 1.03033,5.64027 0,2.04785 -0.31631,3.98429 -0.94758,5.80745 -0.63128,1.82518 -1.53214,3.42581 -2.7026,4.80285 -1.17047,1.37811 -2.56381,2.46673 -4.18003,3.26705 -1.61623,0.8003 -3.38994,1.20046 -5.32248,1.20046" />
    <path id="letter-e-3" style="fill:#000;fill-opacity:1;fill-rule:nonzero;stroke:none" d="m 424.43571,167.3093 c -0.11077,-1.56359 -0.47378,-2.98756 -1.08638,-4.27167 -0.61258,-1.28449 -1.39334,-2.39192 -2.34092,-3.32283 -0.94757,-0.92984 -2.05265,-1.65653 -3.3152,-2.17836 -1.26387,-0.52089 -2.60117,-0.78152 -4.01319,-0.78152 -1.41204,0 -2.74932,0.26063 -4.01187,0.78152 -1.2639,0.52183 -2.36895,1.24852 -3.31654,2.17836 -0.94757,0.93091 -1.70963,2.0477 -2.28486,3.35051 -0.57656,1.30349 -0.91956,2.71811 -1.03033,4.24399 z m -10.69965,16.64126 c -2.11804,0 -4.06791,-0.40016 -5.85231,-1.20046 -1.78304,-0.80032 -3.32587,-1.89884 -4.62444,-3.29527 -1.30126,-1.39575 -2.31424,-3.00522 -3.0376,-4.83053 -0.7247,-1.82316 -1.08639,-3.77793 -1.08639,-5.86334 0,-2.04663 0.36169,-3.97331 1.08639,-5.77909 0.72336,-1.80538 1.73634,-3.38729 3.0376,-4.74708 1.29857,-1.35872 2.83205,-2.43739 4.59775,-3.23872 1.76438,-0.80039 3.70491,-1.20106 5.82296,-1.20106 2.11803,0 4.05857,0.40067 5.82427,1.20106 1.76437,0.80133 3.27916,1.8899 4.54171,3.26693 1.26255,1.37705 2.2475,2.95936 2.95352,4.74655 0.70468,1.78706 1.05969,3.68539 1.05969,5.69604 0,0.29836 -0.0107,0.59551 -0.028,0.89333 -0.0187,0.29823 -0.0481,0.50257 -0.0841,0.61437 l -24.79991,0 c 0.11212,1.56347 0.4738,3.00629 1.08771,4.32742 0.61127,1.32222 1.39203,2.46669 2.3396,3.43478 0.94758,0.96848 2.04331,1.72234 3.28851,2.2614 1.24386,0.54015 2.57314,0.80975 3.98383,0.80975 0.96627,0 1.91385,-0.13012 2.84275,-0.39075 0.92889,-0.26026 1.78438,-0.61384 2.5638,-1.06104 0.78075,-0.4472 1.47742,-0.99564 2.09001,-1.64704 0.6126,-0.65141 1.08638,-1.36876 1.42004,-2.15014 l 3.28984,0.89319 c -0.4471,1.08028 -1.07837,2.0572 -1.89516,2.93166 -0.81813,0.87502 -1.76571,1.63876 -2.84274,2.28964 -1.07838,0.65196 -2.26619,1.1545 -3.56611,1.50763 -1.30259,0.35314 -2.63988,0.53077 -4.0132,0.53077" />
    <path id="letter-r" style="fill:#000;fill-opacity:1;fill-rule:nonzero;stroke:none" d="m 448.23199,157.64824 c -2.56247,0.0751 -4.79262,0.78193 -6.68645,2.12246 -1.89516,1.34039 -3.23378,3.18295 -4.0132,5.52848 l 0,18.09293 -3.78898,0 0,-29.09399 3.5661,0 0,6.98014 c 1.0023,-2.04716 2.32091,-3.75025 3.95715,-5.1095 1.63356,-1.35818 3.39927,-2.03834 5.29443,-2.03834 0.33365,0 0.64863,0 0.94759,0 0.29627,0 0.53785,0.0194 0.72336,0.0559 l 0,3.46193" />
    <path id="letter-s" style="fill:#000;fill-opacity:1;fill-rule:nonzero;stroke:none" d="m 462.778,183.95056 c -2.26617,0 -4.47764,-0.37248 -6.63172,-1.11688 -2.15541,-0.74441 -4.0132,-1.82368 -5.57337,-3.23883 l 1.72833,-2.5686 c 1.63491,1.34 3.29651,2.345 4.98747,3.0158 1.69097,0.66973 3.50205,1.00459 5.43457,1.00459 2.33959,0 4.20672,-0.47434 5.60007,-1.42412 1.39335,-0.94921 2.09003,-2.2979 2.09003,-4.04845 0,-0.81818 -0.18686,-1.4982 -0.55788,-2.03848 -0.37237,-0.53907 -0.91956,-1.01395 -1.64425,-1.42345 -0.72337,-0.40962 -1.63491,-0.77256 -2.72931,-1.08924 -1.09705,-0.316 -2.37028,-0.64191 -3.81834,-0.97731 -1.67228,-0.40908 -3.12034,-0.81804 -4.34686,-1.22873 -1.2265,-0.40895 -2.23816,-0.87393 -3.03759,-1.39576 -0.79944,-0.52089 -1.39334,-1.16333 -1.78305,-1.92654 -0.38971,-0.76281 -0.5859,-1.7218 -0.5859,-2.87578 0,-1.45179 0.28694,-2.73629 0.8635,-3.85375 0.57655,-1.11679 1.35731,-2.03834 2.34092,-2.76397 0.98361,-0.72562 2.13672,-1.27459 3.45533,-1.64704 1.31861,-0.3719 2.72263,-0.55901 4.20805,-0.55901 2.22882,0 4.25477,0.36363 6.07387,1.08926 1.82041,0.7255 3.28983,1.68515 4.4029,2.87577 l -1.8391,2.23426 c -1.07704,-1.11747 -2.38631,-1.9549 -3.92779,-2.51322 -1.54282,-0.55847 -3.14969,-0.83797 -4.82064,-0.83797 -1.00364,0 -1.93253,0.10338 -2.78669,0.30718 -0.85549,0.20528 -1.60822,0.53079 -2.25685,0.97746 -0.65128,0.44652 -1.16245,1.01434 -1.53346,1.70293 -0.37104,0.68953 -0.55655,1.49927 -0.55655,2.42965 0,0.78152 0.12946,1.41515 0.38971,1.89831 0.25892,0.48425 0.68733,0.90323 1.28257,1.25641 0.59257,0.35414 1.3453,0.67067 2.25684,0.9491 0.91021,0.2795 2.01395,0.56836 3.31519,0.86565 1.8578,0.44719 3.49271,0.89386 4.90473,1.34039 1.41204,0.44667 2.5905,0.96863 3.53942,1.5636 0.94624,0.59603 1.6616,1.3222 2.14473,2.17835 0.48313,0.8567 0.7247,1.89833 0.7247,3.12706 0,2.68039 -1.02232,4.80285 -3.06562,6.36577 -2.0433,1.56355 -4.79262,2.34559 -8.24796,2.34559" />
    <path id="dot" style="fill:#000;fill-opacity:1;fill-rule:nonzero;stroke:none" d="m 479.77573,183.39211 3.23229,0 0,-5.47256 -3.23229,0 z" />
    <path id="letter-n" style="fill:#000;fill-opacity:1;fill-rule:nonzero;stroke:none" d="m 515.10846,183.39211 -3.78899,0 0,-16.25051 c 0,-3.46192 -0.50182,-5.97461 -1.50412,-7.5386 -1.00364,-1.5636 -2.56513,-2.34499 -4.68185,-2.34499 -1.1144,0 -2.23015,0.20474 -3.34456,0.61384 -1.1144,0.41001 -2.15541,0.98667 -3.12033,1.73115 -0.96627,0.74488 -1.81109,1.62926 -2.53578,2.65217 -0.7247,1.02492 -1.27323,2.13182 -1.64426,3.32298 l 0,17.81396 -3.78899,0 0,-29.09399 3.45535,0 0,6.58938 c 0.59256,-1.04165 1.3266,-2.00077 2.20078,-2.87578 0.87284,-0.875 1.84845,-1.62818 2.92548,-2.26194 1.07704,-0.63254 2.21948,-1.11679 3.42732,-1.45166 1.20782,-0.3354 2.46104,-0.50311 3.76227,-0.50311 1.63492,0 3.00024,0.29891 4.09596,0.89388 1.09573,0.59604 1.97791,1.43347 2.64788,2.51323 0.66865,1.07974 1.15045,2.40088 1.44807,3.96487 0.29762,1.56359 0.44577,3.29422 0.44577,5.19308 l 0,17.03204" />
    <path id="letter-l-2" style="fill:#000;fill-opacity:1;fill-rule:nonzero;stroke:none" d="m 523.13352,142.62681 3.78899,0 0,34.17585 c 0,1.07975 0.29762,1.92654 0.89152,2.54037 0.59524,0.6149 1.43071,0.92155 2.50776,0.92155 0.40838,0 0.89152,-0.0558 1.44939,-0.16716 0.55788,-0.11127 1.07705,-0.26012 1.56017,-0.44667 L 534,182.72241 c -0.70602,0.29775 -1.56951,0.53962 -2.5905,0.7256 -1.02231,0.18544 -1.9045,0.27948 -2.64788,0.27948 -1.74702,0 -3.12035,-0.49367 -4.12399,-1.48046 -1.00362,-0.98575 -1.50411,-2.37268 -1.50411,-4.15974 l 0,-35.46048" />
</svg>
